<?xml version="1.0" encoding="UTF-8" standalone="no"?>
<!-- Created with Inkscape (http://www.inkscape.org/) -->
<svg
   xmlns:dc="http://purl.org/dc/elements/1.1/"
   xmlns:cc="http://creativecommons.org/ns#"
   xmlns:rdf="http://www.w3.org/1999/02/22-rdf-syntax-ns#"
   xmlns:svg="http://www.w3.org/2000/svg"
   xmlns="http://www.w3.org/2000/svg"
   xmlns:xlink="http://www.w3.org/1999/xlink"
   xmlns:sodipodi="http://sodipodi.sourceforge.net/DTD/sodipodi-0.dtd"
   xmlns:inkscape="http://www.inkscape.org/namespaces/inkscape"
   version="1.0"
   width="239.61246"
   height="239.61246"
   id="svg2755"
   sodipodi:version="0.32"
   inkscape:version="0.46"
   sodipodi:docname="griffon-icon.svg"
   inkscape:output_extension="org.inkscape.output.svg.inkscape"
   inkscape:export-filename="/home/danno/svn/codehaus.org/griffon/art/griffon-icon-16x16.png"
   inkscape:export-xdpi="6.0097041"
   inkscape:export-ydpi="6.0097041">
  <metadata
     id="metadata8532">
    <rdf:RDF>
      <cc:Work
         rdf:about="">
        <dc:format>image/svg+xml</dc:format>
        <dc:type
           rdf:resource="http://purl.org/dc/dcmitype/StillImage" />
        <cc:license
           rdf:resource="http://creativecommons.org/licenses/by/3.0/" />
        <dc:creator>
          <cc:Agent>
            <dc:title>Carl Vervisch</dc:title>
          </cc:Agent>
        </dc:creator>
        <dc:contributor>
          <cc:Agent>
            <dc:title>Danno Ferrin</dc:title>
          </cc:Agent>
        </dc:contributor>
        <dc:title>Griffon &quot;Flying G&quot; Icon</dc:title>
      </cc:Work>
      <cc:License
         rdf:about="http://creativecommons.org/licenses/by/3.0/">
        <cc:permits
           rdf:resource="http://creativecommons.org/ns#Reproduction" />
        <cc:permits
           rdf:resource="http://creativecommons.org/ns#Distribution" />
        <cc:requires
           rdf:resource="http://creativecommons.org/ns#Notice" />
        <cc:requires
           rdf:resource="http://creativecommons.org/ns#Attribution" />
        <cc:permits
           rdf:resource="http://creativecommons.org/ns#DerivativeWorks" />
      </cc:License>
    </rdf:RDF>
  </metadata>
  <sodipodi:namedview
     inkscape:window-height="868"
     inkscape:window-width="1132"
     inkscape:pageshadow="2"
     inkscape:pageopacity="0.0"
     guidetolerance="10.0"
     gridtolerance="10.0"
     objecttolerance="10.0"
     borderopacity="1.0"
     bordercolor="#666666"
     pagecolor="#ffffff"
     id="base"
     showgrid="false"
     inkscape:zoom="2.6834998"
     inkscape:cx="56.828771"
     inkscape:cy="119.80623"
     inkscape:window-x="-1"
     inkscape:window-y="25"
     inkscape:current-layer="svg2755" />
  <defs
     id="defs2757">
    <inkscape:perspective
       sodipodi:type="inkscape:persp3d"
       inkscape:vp_x="0 : 119.80623 : 1"
       inkscape:vp_y="0 : 1000 : 0"
       inkscape:vp_z="239.61246 : 119.80623 : 1"
       inkscape:persp3d-origin="119.80623 : 79.870819 : 1"
       id="perspective8534" />
    <radialGradient
       cx="0"
       cy="0"
       r="1"
       fx="0"
       fy="0"
       id="radialGradient2788"
       gradientUnits="userSpaceOnUse"
       gradientTransform="matrix(176.46185,0,0,176.46185,255.02002,-330.49512)"
       spreadMethod="pad">
      <stop
         id="stop2790"
         style="stop-color:#9b2c2f;stop-opacity:1"
         offset="0" />
      <stop
         id="stop2792"
         style="stop-color:#eb2e2b;stop-opacity:1"
         offset="1" />
    </radialGradient>
    <radialGradient
       inkscape:collect="always"
       xlink:href="#radialGradient2788"
       id="radialGradient8544"
       gradientUnits="userSpaceOnUse"
       gradientTransform="matrix(176.46185,0,0,176.46185,255.02002,-330.49512)"
       spreadMethod="pad"
       cx="0"
       cy="0"
       fx="0"
       fy="0"
       r="1" />
    <radialGradient
       inkscape:collect="always"
       xlink:href="#radialGradient2788"
       id="radialGradient8571"
       gradientUnits="userSpaceOnUse"
       gradientTransform="matrix(176.46185,0,0,176.46185,255.02002,-330.49512)"
       spreadMethod="pad"
       cx="0"
       cy="0"
       fx="0"
       fy="0"
       r="1" />
    <radialGradient
       inkscape:collect="always"
       xlink:href="#radialGradient2788"
       id="radialGradient8580"
       gradientUnits="userSpaceOnUse"
       gradientTransform="matrix(176.46185,0,0,176.46185,255.02002,-330.49512)"
       spreadMethod="pad"
       cx="0"
       cy="0"
       fx="0"
       fy="0"
       r="1" />
    <clipPath
       clipPathUnits="userSpaceOnUse"
       id="clipPath8602">
      <path
         style="fill:#ffffff;fill-opacity:1;fill-rule:nonzero;stroke:none"
         id="path8604"
         d="M 262.84521,-328.75 C 251.6748,-328.75 237.59961,-332.06348 237.59961,-344.06543 C 237.59961,-345.34668 237.9082,-346.75 238.36816,-348.16309 C 238.36816,-348.16309 238.36816,-348.16309 238.36816,-348.16309 C 238.36816,-348.16699 238.37354,-348.1748 238.37354,-348.17969 C 238.61133,-348.89063 238.89453,-349.5957 239.24902,-350.29883 C 239.26367,-350.33887 239.28955,-350.37598 239.31445,-350.42383 C 240.28076,-352.33691 241.68262,-354.16113 243.49316,-355.73633 C 243.75439,-355.96484 243.99463,-356.19141 244.26709,-356.40332 C 244.73828,-356.76367 245.24658,-357.08398 245.76563,-357.41211 C 246.16992,-357.65625 246.57471,-357.88672 247.00488,-358.11133 C 247.53125,-358.38184 248.0752,-358.63086 248.64648,-358.85352 C 249.15479,-359.05566 249.6958,-359.20117 250.24268,-359.36328 C 250.82422,-359.5293 251.38574,-359.7168 252.01367,-359.8291 C 253.10449,-360.03711 254.26025,-360.15332 255.479,-360.17871 C 255.5957,-360.17871 255.69727,-360.21387 255.81299,-360.21387 C 272.36719,-360.21387 298.65137,-360 298.65137,-348.41602 C 298.65137,-335.78711 279.40479,-328.75 262.84521,-328.75 z M 267.81641,-445.06494 C 278.58008,-445.06494 283.75098,-434.51123 283.75098,-420.64307 C 283.75098,-406.77588 278.58008,-396.22119 267.81641,-396.22119 C 257.26025,-396.22119 251.87744,-406.77588 251.87744,-420.64307 C 251.87744,-434.51123 257.26025,-445.06494 267.81641,-445.06494 z M 372.3916,-377.52734 C 371.9541,-378.57813 370.77734,-379.52051 368.70117,-379.04004 C 357.81543,-377.7207 347.60059,-373.20996 337.31055,-369.57227 C 333.35938,-368.16992 329.29297,-366.91797 325.18262,-365.87988 C 325.0957,-365.96094 325.10156,-366.09668 324.90625,-366.2334 C 341.68652,-373.51953 356.72461,-383.60352 369.9707,-395.05322 C 370.03027,-395.11377 370.10352,-395.1792 370.14746,-395.23828 C 371.68848,-396.98047 373.88477,-401.25586 373.18359,-404.1626 C 373.08789,-404.51855 372.96484,-404.84766 372.79883,-405.15137 C 372.42285,-405.79346 371.27637,-407.18262 368.54297,-406.28955 C 357.71875,-402.13574 348.45508,-394.53125 338.82715,-388.05176 C 334.28906,-384.97363 329.50488,-382.00781 324.50488,-379.68652 C 324.45898,-379.98047 324.36914,-380.26465 324.21582,-380.54785 C 323.94922,-380.95703 323.51855,-381.26563 323.05273,-381.49414 C 339.01465,-391.33203 355.85547,-406.22461 367.82813,-426.62109 C 368.10645,-427.09424 368.20801,-427.67041 368.06445,-428.17969 C 367.82813,-429.18115 365.93945,-433.41309 363.63672,-432.44385 C 363.44141,-432.35547 363.24805,-432.23975 363.09766,-432.08008 C 353.24512,-422.17627 343.75,-411.91064 333.7793,-403.05908 C 329.65625,-399.38916 325.32617,-395.85742 320.77344,-392.62012 C 320.57324,-393.60742 320.04297,-394.65234 318.96777,-394.98633 C 323.80176,-399.77588 328.5332,-404.80664 332.98438,-409.96338 C 343.14258,-421.67578 352.49609,-435.28271 358.83008,-451.24268 C 358.88379,-451.40479 358.93848,-451.58447 358.95898,-451.76367 C 359.07324,-452.4917 359.0293,-453.22559 358.87109,-453.91846 C 358.52441,-455.5459 357.55664,-456.92383 356.55078,-457.50098 C 355.41699,-458.16895 354.22461,-457.87549 353.35352,-456.73242 C 353.28711,-456.65137 353.22656,-456.58496 353.19727,-456.50391 C 347.48438,-446.8457 341.45605,-437.76416 335.12695,-429.56543 C 320.70215,-410.26123 300.88525,-387.02734 277.37598,-379.76758 C 275.9165,-379.24316 274.38135,-378.73047 272.83594,-378.22852 C 259.13672,-378.39258 247.32324,-377.83398 247.32324,-383.38867 C 247.32324,-389.3916 249.60596,-391.66895 267.19141,-391.66895 C 285.06201,-391.66895 313.16406,-408.12891 301.6416,-429.82617 C 305.65283,-431.65771 312.82324,-436.1709 316.18066,-441.38672 C 318.60742,-445.16064 319.04492,-449.2998 314.84668,-453.05908 C 308.87988,-430.59473 281.50244,-449.61816 267.81641,-449.61816 C 252.91406,-449.61816 230.76904,-442.37354 230.76904,-420.43604 C 230.76904,-399.53027 248.57031,-396.63623 248.57031,-394.97949 C 248.57031,-391.66895 227.0459,-393.11719 227.0459,-382.35352 C 227.0459,-372.83496 242.56836,-364.34863 242.56836,-362.2793 C 242.56836,-360.41211 219.3877,-353.17578 219.3877,-341.37793 C 219.3877,-339.67676 219.68896,-338.06445 220.15723,-336.50293 C 219.63623,-333.34766 221.06055,-329.73633 225.43896,-324.60059 C 225.78564,-324.19141 226.35205,-323.84766 226.94922,-323.65039 C 228.08252,-323.27832 229.22656,-322.90625 230.35938,-322.53809 C 230.81982,-322.39063 231.29004,-322.34375 231.6499,-322.40625 C 233.25586,-322.64844 234.30518,-323.08691 234.99121,-323.6543 C 235.62891,-323.45508 236.20313,-323.22461 236.88086,-323.04688 C 237.16992,-320.1123 238.14551,-316.63672 243.73633,-314.9873 C 246.36768,-314.23438 247.89746,-314.53418 248.67725,-314.92969 C 249.78711,-315.46973 250.2627,-316.46484 250.33105,-317.7168 C 250.34961,-317.84082 250.2832,-318.00586 250.28857,-318.14258 C 252.82813,-314.7041 255.85645,-311.15234 259.39746,-307.56641 C 260.39697,-306.67578 261.71777,-306.12305 263.28906,-305.88574 C 265.20898,-305.61133 267.65186,-305.88086 268.81055,-307.06738 C 268.91455,-307.17676 268.99854,-307.30859 269.02588,-307.4541 C 269.16504,-308.02148 269.21582,-308.5957 269.22314,-309.16992 C 269.271,-311.66211 268.25488,-314.11816 267.01465,-316.49707 C 268.39551,-316.24219 270.18652,-316.10059 271.02148,-316.81348 C 274.34082,-314.05176 277.81885,-311.44531 281.71973,-308.60352 C 282.22314,-308.23438 282.71924,-307.86816 283.22021,-307.50391 C 286.50342,-305.45117 291.80566,-304.51465 294.45654,-305.49707 C 295.59521,-305.9209 296.15674,-306.66406 296.13184,-307.54492 C 296.12207,-307.83398 296.01514,-308.12793 295.90381,-308.4375 C 294.82129,-312.04883 290.84229,-315.21387 286.70117,-318.23633 C 287.17627,-318.48438 287.46533,-318.85156 287.53027,-319.36816 C 287.60693,-319.60059 287.65918,-319.86914 287.68262,-320.16895 C 294.29004,-317.10742 301.84131,-314.41992 310.62109,-312.22559 C 310.77246,-312.18555 310.91602,-312.16699 311.07422,-312.14453 C 312.72754,-311.99023 314.96582,-312.86328 315.94531,-314.06641 C 316.39063,-314.61914 316.58984,-315.21387 316.54492,-315.82324 C 316.50098,-316.28906 316.29883,-316.77246 315.96875,-317.22559 C 315.87305,-317.33789 315.79199,-317.44629 315.67285,-317.53906 C 311.58203,-321.16504 306.43994,-323.10156 301.49414,-325.01953 C 301.94434,-325.2334 302.3999,-325.40625 302.7793,-325.81836 C 302.90088,-325.92188 302.95703,-326.03027 303.01758,-326.14258 C 303.13916,-326.49023 303.18164,-326.80566 303.2002,-327.14063 C 304.93506,-326.80566 306.7334,-326.4375 308.58887,-326.06152 C 318.41895,-324.08789 328.90527,-322.25293 335.91895,-327.6377 C 336.82031,-328.42578 336.90918,-329.48242 336.24219,-330.49316 C 335.43262,-331.71289 333.42383,-332.99414 331.68457,-332.97949 C 331.81543,-332.97266 331.93164,-332.9668 332.03809,-332.94824 C 330.13086,-333.19727 328.22363,-333.46191 326.32422,-333.73242 C 321.28711,-334.46191 316.41309,-335.22949 311.6543,-335.98438 C 312.44434,-336.33789 313.22266,-336.76465 313.93164,-337.33008 C 314.28516,-337.58984 314.45801,-337.97754 314.42871,-338.38086 C 314.3916,-338.76953 314.29199,-339.40039 314.09375,-340.04688 C 327.97559,-340.71875 341.75781,-342.67773 356.33789,-346.52832 C 359.62695,-346.9707 360.96191,-348.83496 361.72363,-349.96387 C 361.8584,-350.15137 361.99414,-350.33887 362.125,-350.53027 C 362.26855,-350.7207 362.43262,-351.02051 362.47461,-351.24316 C 362.82129,-353.17578 361.74219,-354.85156 359.75781,-355.58594 C 358.28516,-356.1416 356.36914,-356.09766 355.09277,-355.33496 C 354.48242,-355.1416 339.8916,-353.14063 339.87988,-353.23535 C 334.29883,-352.66797 328.60352,-352.13184 322.88867,-351.58691 C 322.83398,-352.07324 322.69727,-352.64355 322.45508,-353.24023 C 338.01758,-356.39941 353.23242,-361.77148 367.3125,-368.33594 C 369.72852,-369.59863 373.18359,-374.19336 372.52832,-377.08691 C 372.4873,-377.23828 372.45605,-377.38574 372.3916,-377.52734 z" />
    </clipPath>
  </defs>
  <g
     transform="matrix(1.25,0,0,1.25,-263.73685,613.86569)"
     id="g8592">
    <g
       id="g8594">
      <g
         id="g8596">
        <g
           id="g8598">
          <path
             d="M 402.66699,-396.77344 C 403.51172,-343.84668 361.29102,-300.25879 308.36426,-299.41504 C 255.43652,-298.57031 211.84668,-340.79102 211.00195,-393.71777 C 210.15674,-446.64648 252.37988,-490.23535 305.30957,-491.08008 C 358.23535,-491.92529 401.8252,-449.70215 402.66699,-396.77344 z"
             id="path8600"
             style="fill:url(#radialGradient8580);stroke:none" />
        </g>
      </g>
    </g>
  </g>
  <g
     id="g2776"
     transform="matrix(1.25,0,0,1.25,-263.93685,614.06569)"
     clip-path="url(#clipPath8602)"
     style="fill:#ffffff;fill-opacity:1">
    <g
       id="g2778"
       style="fill:#ffffff;fill-opacity:1">
      <g
         id="g2784"
         style="fill:#ffffff;fill-opacity:1">
        <g
           id="g2786"
           style="fill:#ffffff;fill-opacity:1">
          <path
             style="fill:#ffffff;fill-opacity:1;stroke:none"
             id="path2794"
             d="M 402.66699,-396.77344 C 403.51172,-343.84668 361.29102,-300.25879 308.36426,-299.41504 C 255.43652,-298.57031 211.84668,-340.79102 211.00195,-393.71777 C 210.15674,-446.64648 252.37988,-490.23535 305.30957,-491.08008 C 358.23535,-491.92529 401.8252,-449.70215 402.66699,-396.77344 z" />
        </g>
      </g>
    </g>
  </g>
</svg>
